<?xml version='1.0' encoding='utf-8'?>
<svg xmlns="http://www.w3.org/2000/svg" version="1.1" width="600px" height="976px" viewBox="0 0 600 976"> <g id="layer1"> <g style="fill:rgb(255,0,0); fill-opacity:1.0; stroke-linejoin: miter"> <path d="M-59.96697,982.2737L-61.78919,787.37585L161.02843,693.2872L222.69519,602.79095L539.0045,567.09174L584.285,656.27893L688.9847,677.43866L666.8154,985.2178L-59.96697,982.2737"/> </g> <g style="fill:rgb(15,7,0); fill-opacity:1.0; stroke-linejoin: miter"> <path d="M196.80135,206.95749L165.33553,277.4179Q153.28328,245.72525,150.67937,226.07697Q146.79681,202.86923,153.64563,174.3393Q171.67058,108.47302,221.29132,74.73685Q249.37943,56.138123,312.14752,55.24407Q322.52017,55.06132,332.9535,55.0315L442.35425,66.75603Q475.1344,63.14618,490.29172,64.52288Q506.1942,66.26974,511.45697,69.105Q523.23413,73.0936,533.25867,89.15854Q540.0548,98.096466,550.46484,138.32018Q573.0785,147.23218,591.0419,162.78189Q609.79584,184.06796,611.43567,202.32184Q617.08356,235.44925,607.28735,290.62057Q600.0304,335.30255,576.35785,430.87396L196.80135,206.95749"/> </g> <g style="fill:rgb(253,205,166); fill-opacity:1.0; stroke-linejoin: miter"> <path d="M317.05054,910.8975L212.36473,808.1846L251.71556,661.03723Q175.88159,525.35376,164.93411,461.98193Q163.22995,455.60297,163.74701,431.44183L170.81413,380.0405Q171.72974,371.6195,171.52902,362.62854Q172.02414,358.4778,168.20795,334.08304L158.6667,283.54807Q155.71884,258.74042,156.64812,254.38326Q155.48672,230.23698,179.17847,197.74358Q196.5134,176.7374,218.15417,157.56392Q280.55304,186.35129,307.7405,187.0016Q316.5845,192.189,392.875,174.7174Q406.37012,173.74098,412.6103,176.05862Q430.51645,183.68166,437.15582,199.38847Q441.45532,207.37993,445.22025,216.8446L467.50177,275.357Q472.9492,290.43893,492.27664,309.61957Q502.99466,321.3692,543.3041,336.87634Q572.0299,309.02618,583.67523,318.7762Q601.1896,350.35175,586.83057,414.10486Q572.5447,460.3282,527.01013,482.57813L511.91022,569.2636L538.1478,655.7511L317.05054,910.8975"/> </g> <g style="fill:rgb(15,7,0); fill-opacity:1.0; stroke-linejoin: miter"> <path d="M496.11026,308.2249L491.1892,333.7484Q469.25314,449.22906,451.4642,513.6078Q437.74188,565.1467,414.97162,586.21295Q391.00958,607.94324,326.9569,571.7632L268.92908,585.40497L238.60832,564.4547L211.17523,583.2377L198.90253,553.61835Q169.30022,576.7048,167.84355,593.83875Q164.00026,626.2954,184.10062,640.48096Q203.52242,657.0696,269.36267,666.24634Q344.1156,674.3965,378.53992,664.359Q408.4909,659.5552,448.19974,627.7487Q462.80356,616.609,503.5723,571.9712Q500.0445,499.09445,505.53284,457.5268Q509.7271,416.8744,532.62,325.31076L496.11026,308.2249"/> </g> <g style="fill:rgb(255,28,0); fill-opacity:0.15686275; stroke-linejoin: miter"> <path d="M176.65501,434.785L215.92844,481.0372L272.1364,412.16666L205.91524,459.279L176.65501,434.785"/> </g> <g style="fill:rgb(255,255,255); fill-opacity:1.0; stroke-linejoin: miter"> <path d="M210.73799,514.0494L211.60173,515.7695Q216.15807,525.37415,221.9387,529.3491Q228.27112,533.889,240.19313,534.2779Q242.4137,534.3435,244.77719,534.25446Q247.14067,534.1654,249.63052,533.9229L252.1478,533.64233Q260.33682,532.53674,267.2281,530.6648Q278.07614,528.101,305.99707,517.4964L246.84262,522.2241L210.73799,514.0494"/> </g> <g style="fill:rgb(255,255,255); fill-opacity:1.0; stroke-linejoin: miter"> <path d="M306.88818,344.76337L308.28058,345.21957Q317.3555,348.24625,323.37338,349.67117Q329.49017,351.05658,333.09872,351.21893Q336.60867,351.3843,338.3446,351.17535Q340.495,350.9865,342.5487,350.55267Q346.64642,349.66055,350.47333,348.08252Q353.37012,346.96637,359.87137,343.7088Q354.26843,340.11523,348.72324,337.0818Q344.12192,334.74493,343.22134,334.4684Q341.39984,333.71832,339.59973,333.17566Q335.6952,332.02774,332.59094,332.04257L329.92844,332.21362L327.7575,332.6138L325.6084,333.2256Q318.12476,335.73727,306.88818,344.76337"/> </g> <g style="fill:rgb(0,0,0); fill-opacity:1.0; stroke-linejoin: miter"> <path d="M341.70593,351.17325L340.8346,350.6374Q334.94507,347.25742,333.33292,343.79187Q331.72433,340.79156,333.35065,332.57956Q337.69238,332.60468,340.85165,333.43243Q344.86093,334.5863,348.16254,336.69412Q352.39978,339.2378,359.8585,344.8573L341.70593,351.17325"/> </g> <g style="fill:rgb(255,255,255); fill-opacity:1.0; stroke-linejoin: miter"> <path d="M222.52309,342.66025L219.61511,344.0006Q213.77054,346.71967,208.2691,348.9789Q202.76764,351.2382,198.06677,352.42465Q195.73062,352.99872,193.6804,353.18964L191.71596,353.2656Q190.13258,353.2425,188.6002,352.849L187.1806,352.37985Q184.48975,351.24283,182.52919,349.12714Q179.64542,345.87717,177.37782,341.80142Q181.47676,332.28113,186.38367,329.7981L187.86089,329.2057L189.4886,328.8474Q191.90782,328.68558,191.8232,328.76804Q194.29544,328.8092,199.20157,330.54874Q207.14479,333.50687,222.52309,342.66025"/> </g> <g style="fill:rgb(0,0,0); fill-opacity:1.0; stroke-linejoin: miter"> <path d="M204.28279,351.05527L203.31326,350.32944Q200.3231,348.1726,198.06714,345.83008Q196.39279,343.826,196.27002,343.37152Q195.80525,342.51807,195.5648,341.60785Q195.33118,340.69595,195.32188,339.7273Q195.20761,339.2707,195.69678,336.7195Q196.2828,334.14383,198.59393,329.18994L223.6431,342.15732L204.28279,351.05527"/> </g> <g style="fill:rgb(0,0,0); fill-opacity:1.0; stroke-linejoin: miter"> <path d="M274.7971,313.718L298.13965,307.50757L321.48218,301.29715L384.04846,335.64056L326.2053,292.6074L285.04324,300.25848L274.7971,313.718"/> </g> <g style="fill:rgb(0,0,0); fill-opacity:1.0; stroke-linejoin: miter"> <path d="M220.7207,320.75085L213.43228,315.3537L206.14386,309.95654L172.90868,321.33432L187.32304,307.98117L208.18463,297.41183L220.7207,320.75085"/> </g> <g style="fill:rgb(0,0,0); fill-opacity:0.08627451; stroke-linejoin: miter"> <path d="M167.28764,694.6387L61.75898,847.8596L156.49142,843.66724L303.63052,919.7906L179.62842,845.62244L159.31656,822.954L96.49408,827.9211L167.28764,694.6387 Z M612.57825,665.9697L599.9504,765.62463L504.6289,808.5284L498.35583,871.4789L439.0016,875.86145L287.48373,976.15814L287.48373,976.15814L443.4154,908.2582L519.0969,889.7289L550.0063,827.6771L623.6743,766.64594L612.57825,665.9697 Z"/> </g> </g> </svg>